<svg xmlns="http://www.w3.org/2000/svg" xmlns:xlink="http://www.w3.org/1999/xlink" id="869a981d-5394-490d-9104-6940aaebaf2b" data-name="Layer 1" width="1003.92" height="836.78" viewBox="0 0 1003.92 836.78"><defs><linearGradient id="aaa84376-7da2-49a5-964f-b58018dda0eb" x1="795.24" y1="863.66" x2="795.24" y2="394.91" gradientUnits="userSpaceOnUse"><stop offset="0" stop-color="gray" stop-opacity="0.25"/><stop offset="0.54" stop-color="gray" stop-opacity="0.12"/><stop offset="1" stop-color="gray" stop-opacity="0.1"/></linearGradient></defs><title>questions</title><path d="M537.57,43.85c45.17-16.79,100.16-2.35,147.12,18.71C832.18,128.72,939.63,254.31,1025,382.26c30.91,46.33,60.27,94.7,71.89,146.42,23.66,105.27-38.05,214.25-143,252.44-35.69,13-74.9,18.33-114.17,21.3-69.83,5.29-142.13,3.19-211.4-16.4-49.4-14-96.13-36.52-140.95-61.4C362.2,655.1,247.89,564.82,165.58,454.54c-36.1-48.37-66.64-102.9-67.52-158.71s35.49-111.89,95.33-121.38c24.74-3.92,50.91.16,76.44,4.36,37.59,6.19,75.69,12.7,112.85,10C421.07,186,471,171,478,134.35,485.41,95,492.46,60.62,537.57,43.85Z" transform="translate(-98.04 -31.61)" fill="#eff3f7" opacity="0.1"/><path d="M342.06,800.42s48.26-2.91,42.57,30.91c0,0,1.13,6-4.29,8.69,0,0-.08-2.51-4.95-1.66a21.8,21.8,0,0,1-5.24.26,10.93,10.93,0,0,1-6.41-2.65h0s-13.57-5.6-18.84-27.78c0,0-3.91-4.83-3.75-6.08l8.14,3.48s-2.78,5.88-.59,10.76c0,0,.26-10.54,1.83-10.3.31.05,4.23,2,4.23,2s-4.79,10.23-1.18,17.67c0,0-1.37-12.61,2.67-16.93l5.74,3.35s-5.6,10.57-1.8,19.19c0,0-1-13.23,3-18.38l5.2,4s-5.26,10.42-2.05,17.58c0,0,.41-15.41,3.17-16.57,0,0,4.55,4,5.24,5.66,0,0-3.6,7.56-1.37,11.55,0,0,1.37-10.26,2.5-10.31,0,0,4.52,6.8,5,11.46,0,0-.2-6.93-3.91-12.11,0,0,4.38.75,6.94,3.59,0,0-.71-4.81-8.05-5.23,0,0-3.74-5.15-4.75-5.47,0,0,7.31-.61,11.74,1.36,0,0-3.9-4.54-13.08-2.48l-5.13-4.18s9.63-1.32,13.7.14c0,0-4.69-4-15.08-1.09l-5.58-3.34s8.2-1.77,13.09-1.13c0,0-5.16-2.78-14.73.23l-4-1.79s6-1.18,7.77-1.37,1.85-.67,1.85-.67a20.82,20.82,0,0,0-11.29,1.25S341.91,801,342.06,800.42Z" transform="translate(-98.04 -31.61)" fill="#eff3f7"/><ellipse cx="277.26" cy="811.36" rx="34.16" ry="5.77" fill="#eff3f7" opacity="0.1"/><path d="M277.41,777.67s27.21-1.64,24,17.43A4.63,4.63,0,0,1,299,800s-.05-1.41-2.79-.93a12.13,12.13,0,0,1-2.95.14,6.06,6.06,0,0,1-3.62-1.49h0S282,794.55,279,782.05c0,0-2.2-2.73-2.12-3.43l4.6,2s-1.57,3.32-.34,6.07c0,0,.15-5.95,1-5.81.18,0,2.39,1.15,2.39,1.15s-2.7,5.77-.66,10c0,0-.78-7.11,1.5-9.55l3.23,1.89s-3.15,6-1,10.82c0,0-.55-7.46,1.69-10.36l2.93,2.28s-3,5.87-1.15,9.91c0,0,.23-8.69,1.79-9.34,0,0,2.56,2.26,2.95,3.19,0,0-2,4.26-.77,6.51,0,0,.77-5.78,1.41-5.81,0,0,2.55,3.83,2.81,6.46a14,14,0,0,0-2.2-6.83,7.63,7.63,0,0,1,3.91,2s-.39-2.71-4.54-2.95c0,0-2.11-2.91-2.67-3.08,0,0,4.12-.35,6.62.76,0,0-2.2-2.56-7.38-1.4l-2.89-2.36s5.43-.74,7.73.08c0,0-2.65-2.26-8.51-.61l-3.14-1.89a28.57,28.57,0,0,1,7.37-.63s-2.9-1.57-8.3.13l-2.25-1s3.39-.67,4.38-.77,1.05-.38,1.05-.38a11.79,11.79,0,0,0-6.37.71S277.33,778,277.41,777.67Z" transform="translate(-98.04 -31.61)" fill="#eff3f7"/><ellipse cx="198.11" cy="770.04" rx="19.26" ry="3.26" fill="#eff3f7" opacity="0.1"/><path d="M946.82,796s32.85-2,29,21a5.64,5.64,0,0,1-2.92,5.92s-.06-1.71-3.37-1.13a14.81,14.81,0,0,1-3.57.17,7.35,7.35,0,0,1-4.36-1.8h0s-9.24-3.81-12.83-18.91c0,0-2.66-3.29-2.55-4.13l5.54,2.36s-1.89,4-.4,7.33c0,0,.18-7.18,1.24-7,.22,0,2.88,1.38,2.88,1.38s-3.26,7-.8,12c0,0-.93-8.58,1.82-11.52l3.9,2.27s-3.81,7.2-1.22,13.07c0,0-.67-9,2-12.51l3.54,2.76s-3.58,7.09-1.4,12c0,0,.29-10.48,2.17-11.28,0,0,3.09,2.73,3.56,3.85,0,0-2.45,5.15-.93,7.87,0,0,.93-7,1.7-7,0,0,3.08,4.63,3.4,7.8a16.81,16.81,0,0,0-2.65-8.24,9.29,9.29,0,0,1,4.72,2.44s-.48-3.27-5.49-3.56c0,0-2.54-3.51-3.22-3.72,0,0,5-.42,8,.92,0,0-2.66-3.08-8.91-1.68l-3.49-2.85s6.55-.9,9.33.09c0,0-3.2-2.73-10.27-.74l-3.8-2.27s5.58-1.2,8.91-.77c0,0-3.51-1.89-10,.16l-2.72-1.22s4.09-.81,5.29-.93,1.26-.46,1.26-.46a14.2,14.2,0,0,0-7.68.85S946.72,796.38,946.82,796Z" transform="translate(-98.04 -31.61)" fill="#eff3f7"/><ellipse cx="871.4" cy="793.36" rx="23.25" ry="3.93" fill="#eff3f7" opacity="0.1"/><path d="M724.17,434.3H655V366.14h69.22Zm-1-102.77H656c0-105.92,100.68-99.73,100.68-166.74,0-36.91-30.21-66.48-67.12-66.48s-67.11,31.88-67.11,67.53H555.33A134,134,0,0,1,689.56,31.61c74.14,0,134.23,59.15,134.23,133.18C823.79,248.58,723.12,258.12,723.12,331.53Z" transform="translate(-98.04 -31.61)" fill="#eff3f7"/><path d="M379.18,414H361.34V396.38h17.84Zm-.27-26.5h-17.3c0-27.3,25.95-25.71,25.95-43a17.22,17.22,0,0,0-17.3-17.15A17.67,17.67,0,0,0,353,344.75h-17.3a34.61,34.61,0,0,1,69.21-.27C404.86,366.08,378.91,368.54,378.91,387.46Z" transform="translate(-98.04 -31.61)" fill="#eff3f7" opacity="0.1"/><path d="M514.26,536.41H496.42V518.84h17.84ZM514,509.92h-17.3c0-27.31,25.95-25.71,25.95-43a17.21,17.21,0,0,0-17.3-17.14A17.67,17.67,0,0,0,488,467.2h-17.3a34.61,34.61,0,0,1,69.21-.27C539.94,488.53,514,491,514,509.92Z" transform="translate(-98.04 -31.61)" fill="#eff3f7" opacity="0.1"/><path d="M596.4,319.71H583.47V307H596.4Zm-.19-19.21H583.67c0-19.78,18.81-18.63,18.81-31.15a12.48,12.48,0,0,0-12.54-12.42,12.8,12.8,0,0,0-12.54,12.62H564.86a25.08,25.08,0,0,1,50.16-.2C615,285,596.21,286.79,596.21,300.5Z" transform="translate(-98.04 -31.61)" fill="#eff3f7" opacity="0.1"/><path d="M817.24,337.65h-7.31v-7.2h7.31Zm-.11-10.85H810c0-11.18,10.63-10.53,10.63-17.61a7,7,0,0,0-7.08-7,7.24,7.24,0,0,0-7.09,7.13h-7.09a14.18,14.18,0,0,1,28.35-.11C827.76,318,817.13,319.05,817.13,326.8Z" transform="translate(-98.04 -31.61)" fill="#eff3f7" opacity="0.1"/><path d="M929,665.12h-7.31v-7.2H929Zm-.11-10.85h-7.09c0-11.19,10.64-10.53,10.64-17.61a7.05,7.05,0,0,0-7.09-7,7.23,7.23,0,0,0-7.09,7.13h-7.09a14.18,14.18,0,0,1,28.35-.11C939.56,645.51,928.93,646.52,928.93,654.27Z" transform="translate(-98.04 -31.61)" fill="#eff3f7" opacity="0.1"/></svg>