<svg height="512" viewBox="0 0 24 24" width="512" xmlns="http://www.w3.org/2000/svg"><path d="M8.843 12.651c-1.392 0-2.521 1.129-2.521 2.521v6.306c0 1.392 1.129 2.521 2.521 2.521s2.521-1.129 2.521-2.521v-6.306c-.001-1.392-1.13-2.521-2.521-2.521zM.019 15.172c0 1.393 1.13 2.523 2.523 2.523s2.523-1.13 2.523-2.523v-2.523H2.542c-1.393 0-2.523 1.13-2.523 2.523z" fill="#e91e63"/><path d="M8.846-.001h-.003c-1.393 0-2.523 1.13-2.523 2.523s1.13 2.523 2.523 2.523h2.521V2.522v-.005c-.001-1.391-1.128-2.518-2.518-2.518zM2.525 11.37h6.318c1.393 0 2.523-1.13 2.523-2.523s-1.13-2.523-2.523-2.523H2.525c-1.393 0-2.523 1.13-2.523 2.523s1.13 2.523 2.523 2.523z" fill="#00bcd4"/><path d="M21.457 6.323c-1.391 0-2.518 1.127-2.518 2.518v2.528h2.521c1.393 0 2.523-1.13 2.523-2.523s-1.13-2.523-2.523-2.523h-.003zM12.641 2.522v6.325c0 1.392 1.129 2.521 2.521 2.521s2.521-1.129 2.521-2.521V2.522c0-1.392-1.129-2.521-2.521-2.521s-2.521 1.129-2.521 2.521z" fill="#4caf50"/><g fill="#ff9800"><path d="M17.682 21.476c0-1.392-1.129-2.521-2.521-2.521H12.64v2.523c.001 1.391 1.129 2.519 2.521 2.519s2.521-1.129 2.521-2.521zM21.479 12.649h-6.318c-1.393 0-2.523 1.13-2.523 2.523s1.13 2.523 2.523 2.523h6.318c1.393 0 2.523-1.13 2.523-2.523s-1.13-2.523-2.523-2.523z"/></g></svg>