<?xml version="1.0" encoding="utf-8"?>
<!-- Generator: Adobe Illustrator 22.1.0, SVG Export Plug-In . SVG Version: 6.00 Build 0)  -->
<svg version="1.1" id="Calque_1" xmlns="http://www.w3.org/2000/svg" xmlns:xlink="http://www.w3.org/1999/xlink" x="0px" y="0px"
	 viewBox="0 0 56.7 56.7" style="enable-background:new 0 0 56.7 56.7;" xml:space="preserve">
<style type="text/css">
	.st0{fill:none;stroke:#231F20;stroke-linecap:round;stroke-linejoin:round;stroke-miterlimit:10;}
</style>
<rect x="12.4" y="6.1" class="st0" width="31.9" height="44.5"/>
<line class="st0" x1="16.4" y1="10.8" x2="26.8" y2="10.8"/>
<line class="st0" x1="37" y1="10.8" x2="40.2" y2="10.8"/>
<g>
	<rect x="-85.5" y="-13" class="st0" width="31.9" height="44.5"/>
	<line class="st0" x1="-81.4" y1="-6.3" x2="-71.1" y2="-6.3"/>
	<line class="st0" x1="-81.4" y1="-0.1" x2="-71.1" y2="-0.1"/>
	<line class="st0" x1="-81.4" y1="6.1" x2="-71.1" y2="6.1"/>
	<line class="st0" x1="-81.4" y1="12.3" x2="-71.1" y2="12.3"/>
	<line class="st0" x1="-81.4" y1="18.6" x2="-71.1" y2="18.6"/>
	<line class="st0" x1="-81.4" y1="24.8" x2="-71.1" y2="24.8"/>
	<line class="st0" x1="-60.8" y1="-6.3" x2="-57.6" y2="-6.3"/>
	<line class="st0" x1="-60.8" y1="-0.1" x2="-57.6" y2="-0.1"/>
	<line class="st0" x1="-60.8" y1="6.1" x2="-57.6" y2="6.1"/>
	<line class="st0" x1="-60.8" y1="12.3" x2="-57.6" y2="12.3"/>
	<line class="st0" x1="-60.8" y1="18.6" x2="-57.6" y2="18.6"/>
	<line class="st0" x1="-60.8" y1="24.8" x2="-57.6" y2="24.8"/>
</g>
</svg>
